<svg width="36" height="36" viewBox="0 0 36 36" fill="none" xmlns="http://www.w3.org/2000/svg">
<path d="M7.49998 19.77V23.985C7.49998 25.08 8.09998 26.1 9.05998 26.625L16.56 30.72C17.46 31.215 18.54 31.215 19.44 30.72L26.94 26.625C27.9 26.1 28.5 25.08 28.5 23.985V19.77L19.44 24.72C18.54 25.215 17.46 25.215 16.56 24.72L7.49998 19.77ZM16.56 5.28001L3.91498 12.18C2.87998 12.75 2.87998 14.25 3.91498 14.82L16.56 21.72C17.46 22.215 18.54 22.215 19.44 21.72L31.5 15.135V24C31.5 24.825 32.175 25.5 33 25.5C33.825 25.5 34.5 24.825 34.5 24V14.385C34.5 13.83 34.2 13.335 33.72 13.065L19.44 5.28001C18.54 4.80001 17.46 4.80001 16.56 5.28001Z" fill="#F7CB15"/>
</svg>
